<svg width="200" height="35.45" viewBox="0 0 820 150" fill="none" xmlns="http://www.w3.org/2000/svg">
<path d="M69.7307 0.577113C69.895 0.225039 70.2483 0 70.6369 0H818.43C819.161 0 819.645 0.759904 819.336 1.42289L750.269 149.423C750.105 149.775 749.752 150 749.363 150H1.57021C0.83859 150 0.354622 149.24 0.664013 148.577L69.7307 0.577113Z" fill="url(#paint0_linear_75_177)"/>
<path d="M450.828 65.8276H419.176V34.1692C419.176 29.1128 415.062 25 410 25C404.938 25 400.824 29.1128 400.824 34.1692V65.8276H369.176C364.116 65.8276 360 69.944 360 75C360 80.0544 364.115 84.1692 369.176 84.1692H400.824V115.828C400.824 120.886 404.937 125 410 125C415.062 125 419.176 120.885 419.176 115.828V84.1692H450.828C455.886 84.1692 460 80.0544 460 75C460 69.944 455.886 65.8276 450.828 65.8276Z" fill="white"/>
<defs>
<linearGradient id="paint0_linear_75_177" x1="784" y1="74.9999" x2="-101" y2="99.9999" gradientUnits="userSpaceOnUse">
<stop stop-color="#A63543"/>
<stop offset="1" stop-color="#FF9A6F"/>
</linearGradient>
</defs>
</svg>
