<svg width="165" height="113" viewBox="0 0 165 113" fill="none" xmlns="http://www.w3.org/2000/svg">
<path d="M52.5 0H165L112.5 112.5H0L52.5 0Z" fill="#A63543"/>
<path d="M105.081 26.9856H93.4071C92.8247 21.9357 88.5282 18 83.3245 18C78.121 18 73.8251 21.9356 73.2427 26.9856H61.5677C56.8432 26.9856 53 30.8299 53 35.5543V35.9939C53 39.6043 55.248 42.6944 58.4148 43.9535V84.4313C58.4148 89.1559 62.2585 93 66.9827 93H99.6667C104.391 93 108.234 89.1556 108.234 84.4313V43.9537C111.401 42.6944 113.649 39.6043 113.649 35.9941V35.5544C113.649 30.8299 109.806 26.9856 105.081 26.9856ZM83.3245 22.0637C86.2841 22.0637 88.7544 24.185 89.301 26.9856H77.3491C77.8956 24.1848 80.366 22.0637 83.3245 22.0637ZM104.171 84.4313C104.171 86.9153 102.15 88.9365 99.6665 88.9365H66.9825C64.4993 88.9365 62.4783 86.9152 62.4783 84.4313V44.5626H104.171V84.4313ZM109.586 35.9939C109.586 38.4779 107.565 40.4991 105.081 40.4991H61.5677C59.0845 40.4991 57.0635 38.4779 57.0635 35.9939V35.5543C57.0635 33.0703 59.0845 31.0491 61.5677 31.0491H105.081C107.565 31.0491 109.586 33.0703 109.586 35.5543V35.9939H109.586Z" fill="white"/>
<path d="M72.4321 83.7394C73.5543 83.7394 74.4639 82.8294 74.4639 81.7078V58.8307C74.4639 57.7089 73.5541 56.7988 72.4321 56.7988C71.3102 56.7988 70.4004 57.7089 70.4004 58.8307V81.7078C70.4002 82.8298 71.31 83.7394 72.4321 83.7394Z" fill="white"/>
<path d="M83.3247 83.7394C84.4469 83.7394 85.3566 82.8294 85.3566 81.7078V58.8307C85.3566 57.7089 84.4465 56.7988 83.3247 56.7988C82.2027 56.7988 81.293 57.7089 81.293 58.8307V81.7078C81.293 82.8298 82.2026 83.7394 83.3247 83.7394Z" fill="white"/>
<path d="M94.2175 83.7394C95.3394 83.7394 96.249 82.8294 96.249 81.7078V58.8307C96.249 57.7089 95.3393 56.7988 94.2175 56.7988C93.0952 56.7988 92.1855 57.7089 92.1855 58.8307V81.7078C92.1854 82.8298 93.0955 83.7394 94.2175 83.7394Z" fill="white"/>
</svg>
