<svg width="50" height="50" viewBox="0 0 75 75" fill="none" xmlns="http://www.w3.org/2000/svg">
<path d="M6.13915 68.8608H10.6412L55.9686 23.5334L51.4666 19.0314L6.13915 64.3588V68.8608ZM68.9632 19.1337L55.8663 6.03684L60.1637 1.73943C61.3233 0.579809 62.7558 0 64.4611 0C66.1664 0 67.5989 0.579809 68.7585 1.73943L73.2606 6.24147C74.4202 7.40109 75 8.83356 75 10.5389C75 12.2442 74.4202 13.6767 73.2606 14.8363L68.9632 19.1337ZM64.6657 23.4311L13.0969 75H0V61.9031L51.5689 10.3342L64.6657 23.4311ZM53.7176 21.2824L51.4666 19.0314L55.9686 23.5334L53.7176 21.2824Z" fill="white"/>
</svg>
