<svg width="250" height="250" viewBox="0 0 250 250" fill="none" xmlns="http://www.w3.org/2000/svg">
<path d="M129.031 241.078C129.031 243.498 127.418 245.514 124.999 245.514C122.58 245.514 120.967 243.498 120.967 241.078V172.127C120.967 169.708 122.58 167.691 124.999 167.691C127.418 167.691 129.031 169.708 129.031 172.127V241.078Z" fill="#F58E6A"/>
<path d="M250 120.919C250 123.338 248.387 124.951 245.967 124.951H177.419C175 124.951 173.387 123.338 173.387 120.919C173.387 118.5 175 116.887 177.419 116.887H245.967C248.387 116.887 250 118.5 250 120.919Z" fill="#F58E6A" fill-opacity="0.6"/>
<path d="M76.6129 120.919C76.6129 123.338 75 124.951 72.5806 124.951H4.03226C1.6129 124.951 0 123.338 0 120.919C0 118.5 1.6129 116.887 4.03226 116.887H72.5806C75 116.887 76.6129 118.5 76.6129 120.919Z" fill="#CD6256"/>
<path d="M164.516 87.0445C162.903 88.6574 160.08 88.6574 158.467 87.0445C156.855 85.4316 156.855 82.609 158.467 80.9961L207.258 32.2058C208.871 30.5929 211.693 30.5929 213.306 32.2058C214.919 33.8187 214.919 36.6413 213.306 38.2542L164.516 87.0445Z" fill="#F58E6A" fill-opacity="0.3"/>
<path d="M42.7424 208.822C41.1295 210.435 38.307 210.435 36.6941 208.822C35.0811 207.209 35.0811 204.386 36.6941 202.773L85.4844 153.983C87.0973 152.37 89.9199 152.37 91.5328 153.983C93.1457 155.596 93.1457 158.419 91.5328 160.032L42.7424 208.822Z" fill="#E27961"/>
<path d="M158.467 160.032C156.855 158.419 156.855 155.596 158.467 153.983C160.08 152.37 162.903 152.37 164.516 153.983L213.306 202.773C214.919 204.386 214.919 207.209 213.306 208.822C211.693 210.435 208.871 210.435 207.258 208.822L158.467 160.032Z" fill="#F58E6A" fill-opacity="0.8"/>
<path d="M36.6941 37.8509C35.0811 36.238 35.0811 33.8187 36.6941 32.2058C38.307 30.5929 41.1295 30.5929 42.7424 32.2058L91.5328 80.9961C93.1457 82.609 93.1457 85.4316 91.5328 87.0445C89.9199 88.6574 87.0973 88.6574 85.4844 87.0445L36.6941 37.8509Z" fill="#B5454A"/>
<path d="M148.79 74.1426C147.58 76.562 145.161 77.3684 143.145 76.562C141.128 75.7555 139.919 73.3361 140.725 70.9168L166.935 7.20712C167.741 5.19099 170.161 3.98131 172.58 4.78776C174.596 5.59421 175.806 8.01357 174.999 10.4329L148.79 74.1426Z" fill="#F58E6A" fill-opacity="0.1"/>
<path d="M83.0652 233.822C82.2587 235.838 79.8394 237.048 77.42 236.242C75.4039 235.435 74.1942 233.016 75.0007 230.596L101.21 166.887C102.017 164.871 104.436 163.661 106.855 164.467C108.872 165.274 110.081 167.693 109.275 170.113L83.0652 233.822Z" fill="#EB8365"/>
<path d="M171.371 143.903C169.355 143.097 168.145 140.677 168.952 138.258C169.758 136.242 172.178 135.032 174.597 135.839L238.307 162.048C240.323 162.855 241.532 165.274 240.726 167.693C239.92 169.71 237.5 170.919 235.081 170.113L171.371 143.903Z" fill="#F58E6A" fill-opacity="0.7"/>
<path d="M11.6934 78.1765C9.67732 77.37 8.46764 74.9507 9.27409 72.5313C10.0805 70.5152 12.4999 69.3055 14.9193 70.112L78.6289 96.7249C80.6451 97.5313 81.8547 99.9507 81.0483 102.37C80.2418 104.386 77.8225 105.596 75.4031 104.789L11.6934 78.1765Z" fill="#BD504F"/>
<path d="M174.194 104.386C172.178 105.193 169.758 104.386 168.549 101.967C167.742 99.9506 168.549 97.128 170.968 96.3216L234.678 69.7087C236.694 68.9022 239.516 69.7087 240.323 72.128C241.129 74.1442 240.323 76.9667 237.903 77.7732L174.194 104.386Z" fill="#F58E6A" fill-opacity="0.5"/>
<path d="M15.3226 170.917C13.3065 171.724 10.4839 170.917 9.67742 168.498C8.87097 166.482 9.67742 163.659 12.0968 162.853L75.8064 136.24C77.8226 135.433 80.2419 136.24 81.4516 138.659C82.2581 140.675 81.4516 143.498 79.0323 144.304L15.3226 170.917Z" fill="#DD735E"/>
<path d="M141.129 169.709C140.322 167.693 141.129 165.274 143.548 164.064C145.564 163.258 148.387 164.064 149.193 166.483L175.806 230.193C176.612 232.209 175.806 235.032 173.387 235.838C171.371 236.645 168.548 235.838 167.741 233.419L141.129 169.709Z" fill="#F58E6A" fill-opacity="0.9"/>
<path d="M74.5973 10.432C73.7909 8.41583 74.5973 5.59325 77.0167 4.78679C79.0328 3.98034 81.8554 4.78679 82.6619 7.20615L108.872 70.9158C109.678 72.932 108.872 75.7545 106.452 76.561C104.436 77.3674 101.613 76.561 100.807 74.1416L74.5973 10.432Z" fill="#A63643"/>
</svg>
