<svg width="165" height="113" viewBox="0 0 165 113" fill="none" xmlns="http://www.w3.org/2000/svg">
<path d="M52.5 0H165L112.5 112.5H0L52.5 0Z" fill="#A63543"/>
<path d="M111.307 89.5L101.506 79.6989H62.7273C57.7273 79.6989 53.5227 78.0227 50.1136 74.6705C46.7045 71.3182 45 67.142 45 62.142C45 57.5966 46.4347 53.7898 49.304 50.7216C52.1733 47.6534 55.767 45.7784 60.0852 45.0966C60.1989 44.3011 60.3835 43.4063 60.6392 42.4119C60.8949 41.4176 61.25 40.5227 61.7045 39.7273L47.5568 25.5795L51.1364 22L114.972 85.8352L111.307 89.5ZM62.7273 74.5852H96.5625L65.8807 43.9034C65.2557 44.7557 64.8437 45.7216 64.6449 46.8011C64.446 47.8807 64.3466 48.9318 64.3466 49.9545H62.7273C59.2045 49.9545 56.2216 51.0767 53.7784 53.321C51.3352 55.5653 50.1136 58.4205 50.1136 61.8864C50.1136 65.4091 51.3352 68.4063 53.7784 70.8778C56.2216 73.3494 59.2045 74.5852 62.7273 74.5852V74.5852ZM114.375 77.0568L110.369 73.0511C111.79 72.0852 112.898 71.0057 113.693 69.8125C114.489 68.6193 114.886 67.1989 114.886 65.5511C114.886 63.108 114.006 61.0199 112.244 59.2869C110.483 57.554 108.381 56.6875 105.938 56.6875H100.227V49.7841C100.227 44.7841 98.4943 40.5937 95.0284 37.2131C91.5625 33.8324 87.3295 32.142 82.3295 32.142C80.7386 32.142 79.0199 32.3977 77.1733 32.9091C75.3267 33.4205 73.6364 34.2443 72.1023 35.3807L68.5227 31.8011C70.5682 30.1534 72.7699 28.946 75.1278 28.179C77.4858 27.4119 79.8864 27.0284 82.3295 27.0284C88.6364 27.0284 94.0483 29.2727 98.5653 33.7614C103.082 38.25 105.341 43.6477 105.341 49.9545V51.7443C109.432 51.6875 112.898 52.9659 115.739 55.5795C118.58 58.1932 120 61.517 120 65.5511C120 67.5398 119.531 69.6278 118.594 71.8153C117.656 74.0028 116.25 75.75 114.375 77.0568V77.0568Z" fill="white"/>
</svg>
