<svg width="350" height="510" viewBox="0 0 350 510" fill="none" xmlns="http://www.w3.org/2000/svg">
<path d="M106.718 320.75C106.718 331.234 98.218 339.734 87.734 339.734C77.25 339.734 68.75 331.234 68.75 320.75C68.75 310.266 77.25 301.766 87.734 301.766C98.218 301.766 106.718 310.266 106.718 320.75Z" fill="url(#paint0_linear_96_87)"/>
<path d="M281.177 320.75C281.177 331.234 272.677 339.734 262.193 339.734C251.709 339.734 243.209 331.234 243.209 320.75C243.209 310.266 251.709 301.766 262.193 301.766C272.677 301.766 281.177 310.266 281.177 320.75Z" fill="url(#paint1_linear_96_87)"/>
<path d="M175.786 386.191C163.688 386.281 152.165 391.359 143.329 400.511C133.814 410.367 128.579 423.679 128.954 437.031C129.15 443.797 134.65 447.351 139.845 447.351C139.951 447.351 140.056 447.348 140.166 447.348C145.334 447.203 150.475 443.551 150.287 436.86C150.068 429.043 153.193 420.973 158.654 415.278C161.982 411.805 167.669 407.649 175.857 407.531C182.122 407.445 188.435 410.047 193.291 414.879C198.9 420.449 202.213 428.414 202.154 436.172C202.119 439.996 203.908 443.25 207.045 445.086C210.467 447.11 214.912 447.125 218.397 445.153C221.604 443.332 223.459 440.078 223.494 436.219C223.596 422.836 218.119 409.625 208.471 399.965C199.499 391.004 187.998 386.242 175.787 386.192L175.786 386.191Z" fill="url(#paint2_linear_96_87)"/>
<path d="M349.387 299.98C347.836 258.769 335.946 210.14 276.586 156.16C231.668 115.301 209.32 82.1908 210.16 57.7498C210.262 54.8943 210.676 52.0896 211.402 49.41L224.734 0L180.695 26.086C130.633 55.754 107.574 95.492 115.769 137.966C122.133 170.935 134.718 186.435 143.914 197.767C151.727 207.376 156.031 212.681 155.16 224.872C154.539 233.411 150.11 239.251 141.613 242.743C136.473 244.845 130.25 245.958 123.613 245.958C110.015 245.958 99.9184 241.544 96.7614 238.766C88.4841 231.505 83.8945 222.946 83.4805 214.036L81.2968 167.489L48.0898 200.177C21.0348 226.818 2.83184 268.548 0.589844 309.117L0 320.789C0 330.164 0.785158 339.734 2.3398 349.258C18.9058 448.266 85.2188 509.768 175.39 509.768C270.085 509.768 339.77 441.858 348.74 341.028C349.537 334.118 349.943 327.313 349.943 320.79V299.981L349.388 299.985L349.387 299.98ZM330.664 320.792C330.664 326.577 330.301 332.64 329.563 339.069C321.375 431.053 260.856 490.499 175.393 490.499C95.2837 490.499 36.2526 435.167 21.3526 346.119C19.9737 337.642 19.2706 329.123 19.2588 321.279L19.837 310.142C21.8175 274.197 37.825 237.326 61.614 213.912L64.0671 211.494L64.2311 214.931C64.8991 229.193 71.7389 242.439 84.0431 253.247C90.8361 259.204 105.715 265.224 123.613 265.224C132.734 265.224 141.488 263.619 148.925 260.572C164.191 254.31 173.241 242.127 174.39 226.248C175.8 206.439 167.199 195.85 158.882 185.607C150.097 174.787 140.14 162.525 134.694 134.31C128.159 100.419 147.983 67.872 190.522 42.662L193.776 40.7284L192.792 44.3807C191.69 48.4784 191.049 52.7479 190.897 57.0757C189.815 88.2907 212.928 124.303 263.624 170.406C322.128 223.617 330.159 270.656 330.304 309.646L330.667 318.4L330.664 320.792Z" fill="url(#paint3_linear_96_87)"/>
<defs>
<linearGradient id="paint0_linear_96_87" x1="105.051" y1="320.75" x2="64.0418" y2="320.961" gradientUnits="userSpaceOnUse">
<stop stop-color="#A63543"/>
<stop offset="1" stop-color="#FF9A6F"/>
</linearGradient>
<linearGradient id="paint1_linear_96_87" x1="279.51" y1="320.75" x2="238.501" y2="320.961" gradientUnits="userSpaceOnUse">
<stop stop-color="#A63543"/>
<stop offset="1" stop-color="#FF9A6F"/>
</linearGradient>
<linearGradient id="paint2_linear_96_87" x1="219.344" y1="416.771" x2="117.214" y2="417.587" gradientUnits="userSpaceOnUse">
<stop stop-color="#A63543"/>
<stop offset="1" stop-color="#FF9A6F"/>
</linearGradient>
<linearGradient id="paint3_linear_96_87" x1="334.58" y1="254.884" x2="-43.3993" y2="256.225" gradientUnits="userSpaceOnUse">
<stop stop-color="#A63543"/>
<stop offset="1" stop-color="#FF9A6F"/>
</linearGradient>
</defs>
</svg>
