<svg width="165" height="113" viewBox="0 0 165 113" fill="none" xmlns="http://www.w3.org/2000/svg">
<path d="M52.5 0L165 0L112.5 112.5H0L52.5 0Z" fill="#FF9A6F"/>
<path d="M92.4429 23.3863C92.1854 23.1556 91.8205 23 91.461 23C91.3859 23 91.3054 23 91.2302 23.0268H58.2732C57.3932 23.0268 56.5615 23.3917 55.9659 23.9873C55.3649 24.5829 55 25.3878 55 26.2946V85.6678C55 86.5746 55.3649 87.3795 55.9605 87.9751C56.5561 88.5707 57.361 88.9356 58.2678 88.9356C74.9181 88.9356 90.1141 88.9356 106.679 88.9356C107.585 88.9356 108.39 88.5707 108.986 87.9751C109.581 87.3795 109.946 86.5746 109.946 85.6678V42.0595C109.973 41.9307 110 41.8288 110 41.6946C110 41.2546 109.791 40.8629 109.506 40.5785L92.6254 23.4937C92.5717 23.44 92.5449 23.4185 92.4966 23.3917H92.4429V23.3863ZM81.0298 67.939V49.2176C81.0298 48.4181 81.6737 47.7741 82.4946 47.7741C83.2941 47.7741 83.9595 48.4181 83.9595 49.2176V67.9229L90.6776 62.0581C91.2732 61.5322 92.1907 61.5805 92.7166 62.1761C93.2424 62.7717 93.1941 63.6732 92.5985 64.199L83.4659 72.1727C82.9024 72.6663 82.0707 72.6502 81.5288 72.1566L72.4122 64.1937C71.8166 63.6678 71.7468 62.7663 72.2941 62.1707C72.82 61.5751 73.7376 61.5268 74.3332 62.0527L81.0512 67.9176L81.0298 67.939ZM89.98 25.9566V38.7434C89.98 39.9615 90.4737 41.0776 91.2785 41.8824C92.0834 42.6873 93.1995 43.181 94.4176 43.181H106.968V85.6732C106.968 85.7537 106.941 85.8556 106.866 85.9039C106.813 85.9576 106.738 86.0059 106.636 86.0059C93.4517 86.0059 71.0707 86.0059 58.2463 86.0059C58.1659 86.0059 58.0639 85.979 58.0156 85.9039C57.962 85.8502 57.9137 85.7483 57.9137 85.6732V26.2946C57.9137 26.1927 57.9405 26.1122 58.0156 26.0639C58.0693 26.0102 58.1444 25.962 58.2463 25.962H89.9585H89.98V25.9566ZM92.9098 38.7434V28.0332L104.967 40.2459H94.4122C93.999 40.2459 93.6341 40.0634 93.3498 39.8059C93.0922 39.5429 92.9098 39.1566 92.9098 38.7434Z" fill="white"/>
</svg>
