<svg width="40" height="40" viewBox="0 0 40 40" fill="none" xmlns="http://www.w3.org/2000/svg">
<g clip-path="url(#clip0_148_109)">
<mask id="mask0_148_109" style="mask-type:alpha" maskUnits="userSpaceOnUse" x="0" y="0" width="40" height="40">
<path d="M0 0.195312H39.7633V40.0009H0V0.195312Z" fill="white"/>
</mask>
<g mask="url(#mask0_148_109)">
<path fill-rule="evenodd" clip-rule="evenodd" d="M39.954 28.4206C39.954 31.6172 37.4325 34.2252 34.3257 34.2252H26.7205C23.611 34.2252 20.6276 36.8168 20.6276 40.0127H19.6473C19.6473 36.8154 16.5808 34.2123 13.4718 34.2123H5.84914H5.84272C2.73329 34.2123 0.214046 31.6172 0.213291 28.4206L0.208008 0.207031H39.9714L39.954 28.4206Z" fill="url(#paint0_linear_148_109)"/>
<path fill-rule="evenodd" clip-rule="evenodd" d="M10.4941 28.6281C10.8679 28.6627 11.7144 28.6797 12.3243 28.6797C13.7077 28.6797 14.7455 28.0889 14.7455 26.8308C14.7455 26.0605 14.2992 25.6243 13.8352 25.461V25.4444C14.3088 25.153 14.5638 24.7338 14.5638 24.1086C14.5638 23.2788 13.9443 22.6194 12.4241 22.6194C11.7324 22.6194 10.8494 22.6537 10.4941 22.6707V28.6281ZM12.5155 26.223C12.9883 26.223 13.2891 26.3855 13.2891 26.7622C13.2891 27.1645 13.0068 27.3956 12.4422 27.3956C12.1691 27.3956 12.0512 27.3703 11.9505 27.3443V26.223H12.5155ZM12.4061 23.9032C12.7609 23.9032 13.107 24.083 13.107 24.4427C13.107 24.879 12.8067 25.0245 12.4337 25.0245H11.9505V23.9378C12.1149 23.9205 12.2236 23.9032 12.4061 23.9032V23.9032ZM16.2933 28.645H23.7579V22.6537H22.3011V27.3613H20.7536V22.6537H19.2972V27.3613H17.7497V22.6537H16.2933V28.645ZM26.4072 26.2313H28.9648C28.7189 27.1135 27.9093 27.4642 27.0628 27.4642C26.4252 27.4642 25.8879 27.2244 25.5607 26.9676L24.9412 28.1236C25.3237 28.4569 26.1702 28.748 27.0897 28.748C29.1748 28.748 30.4941 27.5754 30.4941 25.6495C30.4941 23.7836 29.1291 22.5508 27.2806 22.5508C26.1979 22.5508 25.4151 22.8935 24.9869 23.2441L25.5423 24.2719C25.9697 23.9718 26.4709 23.8353 26.9257 23.8353C27.8905 23.8353 28.6279 24.2199 28.9102 24.9479H26.4072V26.2313Z" fill="white"/>
<path fill-rule="evenodd" clip-rule="evenodd" d="M14.7541 20.2987H16.1756V14.1016H14.7541V16.4748H12.4873V14.1016H11.0654V20.2987H12.4873V17.8022H14.7541V20.2987ZM19.1979 20.2987L21.9525 16.4479V20.2987H23.3747V14.1016H22.1309L19.3753 17.9531V14.1016H17.9533V20.2987H19.1979ZM30.494 14.1016H29.0627L27.8006 17.13L26.0502 14.1016H24.4411L27.1166 18.5369L27.0367 18.7229C26.9569 18.9003 26.8058 18.9709 26.574 18.9709C26.3966 18.9709 26.3078 18.9358 26.1387 18.8204L25.6411 20.0246C25.8098 20.1572 26.2185 20.2987 26.5834 20.2987C27.4454 20.2987 27.9787 19.7769 28.405 18.829L30.494 14.1016Z" fill="white"/>
<path fill-rule="evenodd" clip-rule="evenodd" d="M7.79958 12.5227H9.23786V6.60695H5.06669L4.97679 7.79067C4.72494 11.069 4.18557 11.2551 3.66403 11.1707L3.63672 12.5227C5.11107 12.7508 5.90229 12.1087 6.27969 8.99005L6.41512 7.87478H7.79958V12.5227ZM12.2947 12.5227L15.081 8.84673V12.5227H16.5197V6.60695H15.2612L12.4741 10.2832V6.60695H11.0354V12.5227H12.2947ZM18.3176 12.5227H22.8579V13.5366H24.2067V11.2551H23.3525V6.60695H21.9141V11.2551H19.7559V6.60695H18.3176V12.5227ZM25.3753 12.5227H29.196V11.2551H26.814V10.1819H28.8368V8.91411H26.814V7.87478H29.1065V6.60695H25.3753V12.5227ZM31.9831 12.5227L34.7699 8.84673V12.5227H36.2081V6.60695H34.9496L32.1625 10.2832V6.60695H30.7242V12.5227H31.9831ZM31.7134 5.08594C31.7134 5.89743 32.4053 6.43794 33.619 6.43794C34.7429 6.43794 35.5072 5.9056 35.4893 5.08594H34.1405C34.1405 5.44925 33.9612 5.50844 33.619 5.50844C33.2234 5.50844 33.0619 5.40718 33.0619 5.08594H31.7134Z" fill="white"/>
</g>
</g>
<defs>
<linearGradient id="paint0_linear_148_109" x1="38.2257" y1="20.1098" x2="-4.72278" y2="20.3315" gradientUnits="userSpaceOnUse">
<stop stop-color="#A63543"/>
<stop offset="1" stop-color="#FF9A6F"/>
</linearGradient>
<clipPath id="clip0_148_109">
<rect width="40" height="40" fill="white"/>
</clipPath>
</defs>
</svg>
