<svg width="500" height="500" viewBox="0 0 500 500" fill="none" xmlns="http://www.w3.org/2000/svg">
<rect width="500" height="500" fill="white"/>
<mask id="mask0_147_100" style="mask-type:alpha" maskUnits="userSpaceOnUse" x="0" y="2" width="498" height="498">
<path d="M0.00195312 2.42969H497.043V500H0.00195312V2.42969Z" fill="white"/>
</mask>
<g mask="url(#mask0_147_100)">
<path fill-rule="evenodd" clip-rule="evenodd" d="M496.827 355.099C496.827 395.057 465.309 427.656 426.474 427.656H331.408C292.54 427.656 255.247 460.052 255.247 500.001H242.993C242.993 460.034 204.662 427.496 165.799 427.496H70.5161H70.4359C31.568 427.496 0.0774248 395.057 0.0679908 355.099L0.00195312 2.42969H497.044L496.827 355.099Z" fill="url(#paint0_linear_147_100)"/>
<path fill-rule="evenodd" clip-rule="evenodd" d="M128.571 357.654C133.243 358.087 143.824 358.299 151.448 358.299C168.741 358.299 181.713 350.914 181.713 335.188C181.713 325.559 176.134 320.107 170.335 318.066V317.858C176.254 314.216 179.442 308.975 179.442 301.161C179.442 290.788 171.698 282.545 152.696 282.545C144.05 282.545 133.012 282.974 128.571 283.186V357.654ZM153.838 327.59C159.748 327.59 163.508 329.622 163.508 334.33C163.508 339.359 159.979 342.247 152.922 342.247C149.508 342.247 148.034 341.931 146.776 341.607V327.59H153.838ZM152.471 298.592C156.906 298.592 161.232 300.84 161.232 305.336C161.232 310.79 157.478 312.609 152.816 312.609H146.776V299.026C148.831 298.809 150.19 298.592 152.471 298.592V298.592ZM201.061 357.866H294.368V282.974H276.158V341.818H256.814V282.974H238.609V341.818H219.266V282.974H201.061V357.866ZM327.484 327.695H359.454C356.381 338.722 346.261 343.105 335.68 343.105C327.71 343.105 320.993 340.108 316.903 336.898L309.159 351.347C313.941 355.514 324.522 359.152 336.016 359.152C362.08 359.152 378.571 344.495 378.571 320.422C378.571 297.098 361.508 281.688 338.402 281.688C324.868 281.688 315.083 285.971 309.731 290.354L316.673 303.202C322.016 299.45 328.281 297.744 333.966 297.744C346.026 297.744 355.243 302.551 358.772 311.652H327.484V327.695Z" fill="white"/>
<path fill-rule="evenodd" clip-rule="evenodd" d="M181.823 253.519H199.592V176.055H181.823V205.72H153.488V176.055H135.715V253.519H153.488V222.313H181.823V253.519ZM237.371 253.519L271.803 205.384V253.519H289.581V176.055H274.033L239.588 224.199V176.055H221.813V253.519H237.371ZM378.572 176.055H360.681L344.904 213.91L323.024 176.055H302.911L336.355 231.497L335.356 233.822C334.358 236.039 332.469 236.922 329.572 236.922C327.355 236.922 326.244 236.483 324.131 235.041L317.911 250.093C320.02 251.75 325.128 253.519 329.689 253.519C340.465 253.519 347.131 246.997 352.46 235.148L378.572 176.055Z" fill="white"/>
<path fill-rule="evenodd" clip-rule="evenodd" d="M94.8931 156.338H112.872V82.3916H60.7321L59.6084 97.1881C56.4601 138.168 49.7181 140.494 43.1988 139.438L42.8574 156.338C61.2868 159.19 71.1771 151.163 75.8946 112.18L77.5874 98.2395H94.8931V156.338ZM151.082 156.338L185.911 110.389V156.338H203.895V82.3916H188.163L153.325 128.345V82.3916H135.341V156.338H151.082ZM226.369 156.338H283.122V169.013H299.982V140.494H289.305V82.3916H271.325V140.494H244.347V82.3916H226.369V156.338ZM314.59 156.338H362.348V140.494H332.573V127.079H357.858V111.231H332.573V98.2395H361.23V82.3916H314.59V156.338ZM397.187 156.338L432.022 110.389V156.338H450V82.3916H434.269L399.43 128.345V82.3916H381.451V156.338H397.187ZM393.816 63.3789C393.816 73.5226 402.465 80.2789 417.636 80.2789C431.685 80.2789 441.238 73.6247 441.015 63.3789H424.155C424.155 67.9203 421.913 68.6602 417.636 68.6602C412.691 68.6602 410.672 67.3945 410.672 63.3789H393.816Z" fill="white"/>
</g>
<defs>
<linearGradient id="paint0_linear_147_100" x1="475.223" y1="251.215" x2="-61.6329" y2="253.986" gradientUnits="userSpaceOnUse">
<stop stop-color="#A63543"/>
<stop offset="1" stop-color="#FF9A6F"/>
</linearGradient>
</defs>
</svg>
