<svg width="192" height="192" viewBox="0 0 192 192" fill="none" xmlns="http://www.w3.org/2000/svg">
<g clip-path="url(#clip0_147_91)">
<rect width="192" height="192" fill="white"/>
<mask id="mask0_147_91" style="mask-type:alpha" maskUnits="userSpaceOnUse" x="0" y="0" width="191" height="192">
<path d="M0.000976562 0.933594H190.865V192.001H0.000976562V0.933594Z" fill="white"/>
</mask>
<g mask="url(#mask0_147_91)">
<path fill-rule="evenodd" clip-rule="evenodd" d="M190.782 136.359C190.782 151.702 178.679 164.221 163.766 164.221H127.261C112.336 164.221 98.0151 176.661 98.0151 192.001H93.3095C93.3095 176.654 78.5905 164.159 63.6672 164.159H27.0784H27.0476C12.1223 164.159 0.0299577 151.702 0.026335 136.359L0.000976562 0.933594H190.865L190.782 136.359Z" fill="url(#paint0_linear_147_91)"/>
<path fill-rule="evenodd" clip-rule="evenodd" d="M49.3711 137.343C51.1649 137.509 55.2282 137.591 58.1556 137.591C64.7961 137.591 69.7774 134.755 69.7774 128.716C69.7774 125.019 67.6352 122.925 65.4083 122.141V122.061C67.6813 120.663 68.9055 118.65 68.9055 115.65C68.9055 111.666 65.9319 108.501 58.6351 108.501C55.3149 108.501 51.0763 108.666 49.3711 108.747V137.343ZM59.0737 125.799C61.3431 125.799 62.7867 126.579 62.7867 128.387C62.7867 130.318 61.4317 131.427 58.7218 131.427C57.411 131.427 56.8448 131.305 56.3618 131.181V125.799H59.0737ZM58.5484 114.663C60.2517 114.663 61.9128 115.527 61.9128 117.253C61.9128 119.347 60.4712 120.046 58.6812 120.046H56.3618V114.83C57.1509 114.747 57.6726 114.663 58.5484 114.663V114.663ZM77.207 137.424H113.037V108.666H106.044V131.262H98.6163V108.666H91.6256V131.262H84.198V108.666H77.207V137.424ZM125.754 125.839H138.03C136.85 130.073 132.964 131.756 128.901 131.756C125.84 131.756 123.261 130.605 121.69 129.373L118.717 134.921C120.553 136.521 124.616 137.918 129.03 137.918C139.038 137.918 145.371 132.29 145.371 123.046C145.371 114.09 138.819 108.172 129.946 108.172C124.749 108.172 120.992 109.817 118.936 111.5L121.602 116.433C123.654 114.993 126.06 114.338 128.243 114.338C132.874 114.338 136.413 116.183 137.768 119.678H125.754V125.839Z" fill="white"/>
<path fill-rule="evenodd" clip-rule="evenodd" d="M69.8197 97.3559H76.6431V67.6094H69.8197V79.0009H58.9393V67.6094H52.1143V97.3559H58.9393V85.3726H69.8197V97.3559ZM91.15 97.3559L104.372 78.8719V97.3559H111.199V67.6094H105.229L92.0014 86.0968V67.6094H85.1761V97.3559H91.15ZM145.371 67.6094H138.501L132.443 82.1457L124.041 67.6094H116.318L129.16 88.8992L128.777 89.7919C128.393 90.6434 127.668 90.9823 126.555 90.9823C125.704 90.9823 125.278 90.8138 124.466 90.26L122.077 96.04C122.887 96.6763 124.849 97.3559 126.6 97.3559C130.738 97.3559 133.298 94.8512 135.344 90.3011L145.371 67.6094Z" fill="white"/>
<path fill-rule="evenodd" clip-rule="evenodd" d="M36.4387 60.0362H43.3425V31.6407H23.3209L22.8894 37.3226C21.6805 53.0587 19.0915 53.9519 16.5881 53.5466L16.457 60.0362C23.5339 61.1314 27.3318 58.0491 29.1433 43.0796L29.7933 37.7263H36.4387V60.0362ZM58.0152 60.0362L71.3896 42.3916V60.0362H78.2953V31.6407H72.2544L58.8764 49.2869V31.6407H51.9707V60.0362H58.0152ZM86.9254 60.0362H108.719V64.9032H115.193V53.9519H111.093V31.6407H104.189V53.9519H93.8292V31.6407H86.9254V60.0362ZM120.802 60.0362H139.141V53.9519H127.708V48.8006H137.417V42.7151H127.708V37.7263H138.712V31.6407H120.802V60.0362ZM152.52 60.0362L165.896 42.3916V60.0362H172.8V31.6407H166.759L153.381 49.2869V31.6407H146.477V60.0362H152.52ZM151.225 24.3398C151.225 28.235 154.546 30.8294 160.372 30.8294C165.767 30.8294 169.435 28.2742 169.35 24.3398H162.875C162.875 26.0837 162.014 26.3679 160.372 26.3679C158.473 26.3679 157.698 25.8818 157.698 24.3398H151.225Z" fill="white"/>
</g>
</g>
<defs>
<linearGradient id="paint0_linear_147_91" x1="182.486" y1="96.467" x2="-23.6668" y2="97.5312" gradientUnits="userSpaceOnUse">
<stop stop-color="#A63543"/>
<stop offset="1" stop-color="#FF9A6F"/>
</linearGradient>
<clipPath id="clip0_147_91">
<rect width="192" height="192" fill="white"/>
</clipPath>
</defs>
</svg>
