<svg width="165" height="113" viewBox="0 0 165 113" fill="none" xmlns="http://www.w3.org/2000/svg">
<path d="M52.5 0L165 0L112.5 112.5H0L52.5 0Z" fill="#FF9A6F"/>
<path d="M82.5 34C68.1705 34 55.1757 41.8398 45.5868 54.5738C44.8044 55.6171 44.8044 57.0746 45.5868 58.1178C55.1757 70.8671 68.1705 78.707 82.5 78.707C96.8296 78.707 109.824 70.8671 119.413 58.1332C120.196 57.0899 120.196 55.6324 119.413 54.5891C109.824 41.8398 96.8296 34 82.5 34ZM83.5279 72.0945C74.0158 72.6928 66.1606 64.853 66.759 55.3256C67.2499 47.4704 73.6169 41.1034 81.4721 40.6125C90.9842 40.0141 98.8394 47.8539 98.241 57.3814C97.7347 65.2212 91.3678 71.5882 83.5279 72.0945ZM83.0523 64.8223C77.928 65.1445 73.6936 60.9254 74.0311 55.8012C74.292 51.5667 77.7286 48.1454 81.963 47.8693C87.0873 47.5471 91.3217 51.7662 90.9842 56.8905C90.708 61.1402 87.2714 64.5615 83.0523 64.8223Z" fill="white"/>
</svg>
