<svg width="38" height="60" viewBox="0 0 38 60" fill="none" xmlns="http://www.w3.org/2000/svg">
<path d="M5.8 59.64C5.53334 59.5333 5.34667 59.3733 5.24 59.16C5.13333 58.9467 5.02667 58.52 4.92 57.88C4.92 57.2933 4.76 56.8667 4.44 56.6C4.12 56.3333 3.50667 56.0933 2.6 55.88C2.01333 55.2933 1.58667 54.6267 1.32 53.88C1.05333 53.1333 0.840001 51.9067 0.680001 50.2C0.573334 48.4933 0.413334 45.9333 0.200001 42.52C0.306667 40.6533 0.386667 39.08 0.44 37.8C0.546667 36.52 0.653334 35.32 0.760001 34.2C0.866668 33.08 0.973334 31.88 1.08 30.6C1.24 29.32 1.45333 27.72 1.72 25.8C1.61333 24.5733 1.66667 23.24 1.88 21.8C2.14667 20.36 2.2 19.2133 2.04 18.36C2.41333 17.1867 2.65333 15.8533 2.76 14.36C2.86667 12.8133 3.10667 11.4533 3.48 10.28C3.58667 9.37333 3.69333 8.52 3.8 7.72C3.96 6.92 4.04 6.25333 4.04 5.72C3.93333 4.65333 3.98667 3.66666 4.2 2.76C4.41333 1.85333 4.84 1.26667 5.48 0.999999C5.8 0.893331 6.25333 0.81333 6.84 0.759997C7.42667 0.706665 7.85333 0.786665 8.12 0.999999C8.54667 1.21333 8.84 1.56 9 2.04C9.16 2.52 9.21333 3.05333 9.16 3.64C9.26667 4.22666 9.26667 5.24 9.16 6.68C9.10667 8.12 8.97334 9.72 8.76 11.48C8.54667 13.1867 8.25333 14.8667 7.88 16.52C7.45334 18.7067 7.10667 20.9467 6.84 23.24C6.62667 25.48 6.46667 27.6933 6.36 29.88C6.14667 34.2533 5.93333 37.88 5.72 40.76C5.50667 43.64 5.48 45.72 5.64 47C5.64 47.16 5.69333 47.5867 5.8 48.28C5.90667 48.9733 6.04 49.64 6.2 50.28C6.36 50.8667 6.52 51.16 6.68 51.16C7.10667 51.1067 7.50667 50.7333 7.88 50.04C8.30667 49.3467 8.68 48.5467 9 47.64C9.37333 46.68 9.72 45.8533 10.04 45.16C10.7333 43.8267 11.4267 42.3867 12.12 40.84C12.8667 39.24 13.5067 37.72 14.04 36.28C15 34.04 15.96 32.12 16.92 30.52C17.88 28.92 18.7867 27.1333 19.64 25.16C19.96 24.3067 20.52 23.08 21.32 21.48C22.1733 19.8267 22.9733 18.3067 23.72 16.92C24.6267 15.5333 25.48 14.2 26.28 12.92C27.1333 11.64 28.12 9.93333 29.24 7.8C30.7867 5.24 31.9867 3.48 32.84 2.52C33.6933 1.56 34.5467 1.08 35.4 1.08C35.9867 0.97333 36.3333 0.97333 36.44 1.08C36.6 1.13333 36.8667 1.42666 37.24 1.96C37.6667 2.54666 37.88 3.16 37.88 3.8C37.9333 4.38667 37.6667 5.21333 37.08 6.28C36.5467 7.34666 35.5867 8.86666 34.2 10.84C33.1333 12.44 31.9333 14.3067 30.6 16.44C29.32 18.5733 28.12 20.6 27 22.52C25.9333 24.3867 25.16 25.7733 24.68 26.68C24.4133 27.2667 24.1733 27.88 23.96 28.52C23.7467 29.16 23.4267 29.7467 23 30.28C22.4667 30.8133 21.7467 31.96 20.84 33.72C19.9333 35.48 19.0533 37.2133 18.2 38.92C17.24 41.16 16.4667 42.92 15.88 44.2C15.3467 45.4267 14.8933 46.44 14.52 47.24C14.2 48.04 13.88 48.8133 13.56 49.56C13.24 50.3067 12.84 51.24 12.36 52.36C12.0933 53.2667 11.72 54.2 11.24 55.16C10.8133 56.1733 10.5733 56.84 10.52 57.16C10.1467 57.7467 9.64 58.2533 9 58.68C8.41333 59.16 7.82667 59.48 7.24 59.64C6.65334 59.8 6.17333 59.8 5.8 59.64Z" fill="#FF9A6F"/>
</svg>
